{"asset":{"copyright":"2020 (c) Adobe Inc.","generator":"Adobe Dimension - 3de52ae4ccc0c25be48106335282fae5a6a58dee","version":"2.0"},"accessors":[{"bufferView":0,"componentType":5126,"count":2304,"type":"VEC3","max":[0.5,0.5,0.5],"min":[-0.5,-0.5,-0.5]},{"bufferView":1,"componentType":5126,"count":2304,"type":"VEC3"},{"bufferView":2,"componentType":5126,"count":2304,"type":"VEC4"},{"bufferView":3,"componentType":5126,"count":2304,"type":"VEC2"},{"bufferView":4,"componentType":5125,"count":2304,"type":"SCALAR","max":[2303],"min":[0]}],"bufferViews":[{"buffer":0,"byteOffset":0,"byteLength":27648,"target":34962},{"buffer":0,"byteOffset":27648,"byteLength":27648,"target":34962},{"buffer":0,"byteOffset":55296,"byteLength":36864,"target":34962},{"buffer":0,"byteOffset":92160,"byteLength":18432,"target":34962},{"buffer":0,"byteOffset":110592,"byteLength":9216,"target":34963}],"buffers":[{"byteLength":119808,"uri":"data:application/octet-stream;base64,"}],"cameras":[{"perspective":{"znear":0.00017320505867246538,"yfov":0.6024156808853149,"zfar":9.526278495788574,"aspectRatio":1.3333333730697632},"type":"perspective","name":"render_camera"}],"materials":[{"pbrMetallicRoughness":{"metallicFactor":0},"name":"Default_Material","doubleSided":true}],"meshes":[{"name":"Sphere","primitives":[{"attributes":{"POSITION":0,"NORMAL":1,"TANGENT":2,"TEXCOORD_0":3},"indices":4,"material":0}]}],"nodes":[{"translation":[0.5,0.7999998331069946,0.5],"rotation":[-0.12059047073125839,0.379409521818161,0.04995020851492882,0.9159756302833557],"scale":[1,1,0.9999999403953552],"camera":0,"name":"render_camera_n3d"},{"translation":[0,2.499999523162842,0],"scale":[4.999999523162842,4.999999523162842,5],"mesh":0,"name":"Sphere"}],"scenes":[{"nodes":[0,1],"name":"scene"}],"scene":0}